<svg width="973" height="973" viewBox="0 0 973 973" fill="none" xmlns="http://www.w3.org/2000/svg">
<circle cx="486.5" cy="486.5" r="486.5" fill="white"/>
<mask id="path-2-inside-1_700_240" fill="white">
<path d="M562.041 112.945C582.018 132.01 582.757 163.659 563.692 183.636L487.747 263.213L408.171 187.268C388.194 168.203 387.455 136.553 406.52 116.576C425.585 96.5997 457.235 95.8606 477.212 114.926L484.446 121.83L491.35 114.595C510.415 94.6187 542.065 93.8796 562.041 112.945Z"/>
</mask>
<path d="M562.041 112.945C582.018 132.01 582.757 163.659 563.692 183.636L487.747 263.213L408.171 187.268C388.194 168.203 387.455 136.553 406.52 116.576C425.585 96.5997 457.235 95.8606 477.212 114.926L484.446 121.83L491.35 114.595C510.415 94.6187 542.065 93.8796 562.041 112.945Z" fill="#EE521F"/>
<path d="M563.692 183.636L562.969 182.946L563.692 183.636ZM487.747 263.213L487.057 263.936L487.78 264.626L488.471 263.903L487.747 263.213ZM477.212 114.926L476.521 115.649L477.212 114.926ZM484.446 121.83L483.755 122.553L484.479 123.244L485.169 122.52L484.446 121.83ZM562.041 112.945L561.351 113.668C580.928 132.352 581.652 163.368 562.969 182.946L563.692 183.636L564.416 184.326C583.862 163.95 583.108 131.668 562.732 112.221L562.041 112.945ZM563.692 183.636L562.969 182.946L487.024 262.522L487.747 263.213L488.471 263.903L564.416 184.326L563.692 183.636ZM487.747 263.213L488.438 262.489L408.861 186.544L408.171 187.268L407.481 187.991L487.057 263.936L487.747 263.213ZM408.171 187.268L408.861 186.544C389.284 167.861 388.56 136.844 407.244 117.267L406.52 116.576L405.797 115.886C386.35 136.262 387.104 168.545 407.481 187.991L408.171 187.268ZM406.52 116.576L407.244 117.267C425.927 97.6896 456.944 96.9653 476.521 115.649L477.212 114.926L477.902 114.202C457.526 94.7559 425.243 95.5097 405.797 115.886L406.52 116.576ZM477.212 114.926L476.521 115.649L483.755 122.553L484.446 121.83L485.136 121.106L477.902 114.202L477.212 114.926ZM484.446 121.83L485.169 122.52L492.073 115.286L491.35 114.595L490.626 113.905L483.722 121.139L484.446 121.83ZM491.35 114.595L492.073 115.286C510.757 95.7087 541.774 94.9844 561.351 113.668L562.041 112.945L562.732 112.221C542.355 92.7749 510.073 93.5288 490.626 113.905L491.35 114.595Z" fill="#EE521F" mask="url(#path-2-inside-1_700_240)"/>
<path d="M421.417 130.283C415.405 129.849 411.398 144.937 410.145 152.535C405.261 154.272 404.04 150.726 404.04 148.735C403.288 136.144 413.433 128.292 418.599 125.94C419.726 118.993 429.088 115.085 433.628 114C438.888 115.303 438.325 119.608 437.385 121.598C426.489 122.467 422.2 127.75 421.417 130.283Z" fill="white" stroke="#EE521F"/>
<path d="M436.894 539.988L436.937 539.998L436.98 540L486.98 542H487.021L534.521 540L534.568 539.997L534.615 539.986L580.5 529.132V550.77L570.315 559.5H396.746L387 546.829V529.12L436.894 539.988Z" fill="#EE521F" stroke="#EE521F"/>
<rect x="257.5" y="302.5" width="457" height="25" fill="#EE521F" stroke="#EE521F"/>
<mask id="path-7-inside-2_700_240" fill="white">
<path d="M715 341C715 366.476 709.077 391.703 697.568 415.241C686.06 438.778 669.192 460.164 647.927 478.179C626.663 496.193 601.418 510.483 573.634 520.233C545.851 529.982 516.073 535 486 535C455.927 535 426.149 529.982 398.365 520.233C370.582 510.483 345.337 496.193 324.073 478.179C302.808 460.164 285.94 438.778 274.432 415.241C262.923 391.703 257 366.476 257 341L486 341H715Z"/>
</mask>
<path d="M715 341C715 366.476 709.077 391.703 697.568 415.241C686.06 438.778 669.192 460.164 647.927 478.179C626.663 496.193 601.418 510.483 573.634 520.233C545.851 529.982 516.073 535 486 535C455.927 535 426.149 529.982 398.365 520.233C370.582 510.483 345.337 496.193 324.073 478.179C302.808 460.164 285.94 438.778 274.432 415.241C262.923 391.703 257 366.476 257 341L486 341H715Z" fill="#EE521F" stroke="#EE521F" stroke-width="2" mask="url(#path-7-inside-2_700_240)"/>
<path d="M294.5 367.5C286.5 362.3 281.167 365.333 279.5 367.5C287.1 429.9 331.667 462.833 353 471.5C311 435.1 296.5 387 294.5 367.5Z" fill="white" stroke="#EE521F"/>
<path d="M381.5 215.5C442.3 226.3 440.167 266.667 431.5 285.5C394 217 403 267 341.5 222C292.3 186 321 150.333 341.5 137C329.5 158.667 320.7 204.7 381.5 215.5Z" fill="#EE521F" stroke="#EE521F"/>
<path d="M586.517 215.5C525.717 226.3 527.85 266.667 536.517 285.5C574.017 217 565.017 267 626.517 222C675.717 186 647.017 150.333 626.517 137C638.517 158.667 647.317 204.7 586.517 215.5Z" fill="#EE521F" stroke="#EE521F"/>
<path d="M531.5 427C536.752 427 539.956 428.756 541.833 431.405C543.732 434.086 544.341 437.772 544.188 441.752C543.884 449.709 540.551 458.526 539.089 461.846C536.177 468.456 531.908 474.464 526.523 479.526C521.139 484.589 514.744 488.606 507.705 491.348C500.666 494.089 493.121 495.5 485.5 495.5C477.879 495.5 470.333 494.089 463.294 491.348C456.255 488.606 449.861 484.589 444.477 479.526C439.092 474.464 434.822 468.456 431.91 461.846C430.458 458.55 428.115 451.348 427.748 444.184C427.382 437.031 428.988 430.134 435.121 427H531.5Z" fill="white" stroke="#EE521F"/>
<circle cx="564" cy="402" r="19.5" fill="white" stroke="#EE521F"/>
<circle cx="403" cy="402" r="19.5" fill="white" stroke="#EE521F"/>
<path d="M518.464 736.52L485.964 764.52L561.464 826.52C595.864 837.72 599.464 809.52 596.964 794.02L518.464 736.52Z" fill="#134842" stroke="#134842" stroke-width="5"/>
<path d="M436.964 723.019L386.964 682.019C343.764 704.418 303.297 683.019 288.464 669.52C245.664 624.72 255.631 585.186 265.964 571.019C283.564 543.819 336.297 559.685 360.464 571.019C405.664 590.619 407.297 636.852 402.464 657.519L466.964 702.019L436.964 723.019Z" fill="#134842" stroke="#134842" stroke-width="5"/>
<path d="M336.464 586.019C328.064 572.419 296.297 578.019 281.464 582.519C295.864 563.319 328.797 569.853 343.464 575.52C349.064 583.92 341.131 586.019 336.464 586.019Z" fill="white" stroke="#134842" stroke-width="5"/>
<path d="M362.464 597.52L350.964 589.52C349.364 583.12 354.297 583.52 356.964 584.52L367.464 592.02C370.264 597.62 365.297 598.02 362.464 597.52Z" fill="white" stroke="#134842" stroke-width="5"/>
<path d="M551.319 659.987L363.319 790.987C356.319 807.32 352.719 837.387 394.319 826.987L568.319 681.487C584.652 687.32 621.919 693.787 640.319 672.987L705.819 606.987C707.652 602.654 708.319 594.787 696.319 597.987L637.819 643.987C630.819 646.154 618.919 646.787 627.319 631.987L684.319 579.987C686.819 575.487 688.519 567.087 675.319 569.487L611.819 614.486C606.319 615.986 596.319 615.886 600.319 603.486L661.319 552.986C663.486 549.153 664.819 542.086 652.819 544.486L562.819 603.486C556.152 609.82 544.519 629.988 551.319 659.987Z" fill="#134842" stroke="#134842"/>
</svg>
